<svg xmlns="http://www.w3.org/2000/svg" width="2489" height="2500" viewBox="0 0 1220 1225"><path fill="#E0E0E0" d="M1042 178A608 608 0 0 0 86 910L0 1225l322-84a608 608 0 0 0 720-963zm-430 934c-90 0-179-24-257-70l-18-11-191 50 51-186-12-19a503 503 0 0 1 428-773 501 501 0 0 1 504 504c0 279-227 505-505 505z"/><linearGradient id="a" x1="610" x2="610" y1="1190" y2="21" gradientUnits="userSpaceOnUse"><stop offset="0" stop-color="#20b038"/><stop offset="1" stop-color="#60d66a"/></linearGradient><path fill="url(#a)" d="M28 1190l82-300A578 578 0 0 1 612 21a576 576 0 0 1 580 580 579 579 0 0 1-857 509l-307 80z"/><path fill="#FFF" fill-rule="evenodd" d="M462 349c-11-25-23-25-33-26h-29c-10 0-26 4-40 19s-53 51-53 125 54 145 62 155c7 10 103 166 256 226 126 50 152 40 180 38s88-36 101-71c12-35 12-65 9-72-4-6-14-10-29-17s-89-44-103-49-23-7-33 8-39 48-48 58-17 12-32 4c-15-7-64-23-121-74-44-40-75-89-83-104-9-15-1-23 6-31l23-26c7-9 10-15 15-25s2-19-1-26l-47-112z" clip-rule="evenodd"/><path fill="#FFF" d="M1037 176A601 601 0 0 0 92 900L7 1211l318-83a601 601 0 0 0 712-952zm-425 923c-89 0-177-24-254-69l-18-11-189 50 51-185-12-18a497 497 0 0 1 422-765 496 496 0 0 1 499 500c0 275-224 498-499 498z"/></svg>